<svg width="1234" height="646" viewBox="0 0 1234 646" fill="none" xmlns="http://www.w3.org/2000/svg">
<path d="M1234 88.1191C1176.13 102.963 1135.27 133.285 1102.26 167.421C1081.59 188.798 1064.19 211.467 1047.02 233.976C1030.75 255.312 1013.05 278.812 994.164 296.34C933.846 352.315 860.061 369.067 790.138 362.867C785.838 373.171 780.445 383.507 773.684 393.48C749.898 428.565 711.353 455.814 654.397 462.987C599.505 469.901 529.775 457.967 440.782 421.896C379.466 397.042 331.82 385.116 294.847 381.062C321.026 411.922 341.078 449.09 348.861 493.756C356.808 539.36 344.037 579.661 316.287 607.772C289.541 634.868 252.161 647.361 215.73 645.889C178.849 644.398 141.124 628.612 112.868 596.985C84.4512 565.178 68.1817 520.349 68.1816 464.923L68.1807 464.565L68.1875 464.209L111.182 464.923L86.3262 464.504C68.1949 464.192 68.189 464.166 68.1895 464.141C68.1897 464.128 68.189 464.092 68.1895 464.067C68.1904 464.017 68.192 463.963 68.1934 463.905C68.196 463.79 68.199 463.659 68.2031 463.516C68.2114 463.229 68.2236 462.885 68.2402 462.489C68.2734 461.697 68.3265 460.69 68.4102 459.486C68.5773 457.082 68.8692 453.872 69.3818 450.013C70.4021 442.332 72.3248 431.853 75.9814 419.897C81.8109 400.838 92.4109 376.91 111.72 354.847C81.9805 341.282 52.8703 331.07 28.9746 323.342C17.1876 319.53 8.46995 316.877 0 314.227V222.99C3.84889 223.908 7.61421 225.37 11.1807 227.395C13.0034 228.075 15.874 229.044 20.2031 230.424C27.7535 232.831 41.9018 237.137 55.4385 241.515C84.3388 250.861 122.682 264.333 161.905 283.432C173.369 289.014 185.199 295.222 197.092 302.112C260.926 284.174 350.158 292.365 473.089 342.193C555.134 375.449 609.144 382.007 643.65 377.661C676.093 373.575 692.608 359.813 702.501 345.221C702.886 344.652 703.264 344.078 703.635 343.498C680.7 335.216 659.241 324.845 640.08 313.154C592.221 283.954 550.558 242.054 534.482 193.454C526.172 168.33 524.599 140.753 533.941 113.561C543.259 86.4398 562.107 63.5484 587.984 45.3291C631.175 14.9208 688.246 18.5629 731.926 57.083C773.623 93.8552 800.321 158.731 805.545 248.913C805.626 249.638 805.722 250.535 805.822 251.591C806.064 254.144 806.34 257.65 806.537 261.934C806.743 266.406 806.865 271.79 806.77 277.877C853.561 279.813 899.627 266.744 935.664 233.302C947.964 221.888 960.827 205.175 978.643 181.818C995.565 159.633 1015.79 133.128 1040.44 107.639C1085.6 60.9373 1146.12 17.0932 1234 0V88.1191ZM189.325 399.695C187.385 401.104 185.623 402.517 184.025 403.909C169.993 416.133 162.342 431.575 158.221 445.051C156.188 451.697 155.15 457.443 154.633 461.336C154.377 463.263 154.256 464.677 154.202 465.45C154.194 465.566 154.19 465.667 154.185 465.752C154.342 503.687 165.287 526.576 177.001 539.688C188.961 553.074 204.379 559.36 219.202 559.959C234.476 560.576 247.364 555.175 255.083 547.355C261.799 540.552 267.691 528.914 264.138 508.519C256.487 464.611 228.222 428.843 189.325 399.695ZM675.043 121.584C658.959 107.4 645.754 109.834 637.493 115.649C623.302 125.641 617.582 134.791 615.275 141.504C612.994 148.144 612.739 156.194 616.131 166.447C623.46 188.603 646.736 216.472 684.873 239.74C696.056 246.563 707.827 252.611 719.988 257.771L719.85 256.747L719.756 255.042C715.391 176.183 692.898 137.33 675.043 121.584Z" fill="url(#paint0_linear_187_50)"/>
<defs>
<linearGradient id="paint0_linear_187_50" x1="50.9625" y1="269.457" x2="1234" y2="269.457" gradientUnits="userSpaceOnUse">
<stop stop-color="#5969FA"/>
<stop offset="0.474375" stop-color="#B059D0"/>
<stop offset="1" stop-color="#2310B4"/>
</linearGradient>
</defs>
</svg>
