
<svg width="1440" height="920" viewBox="0 0 1440 920" fill="none" xmlns="http://www.w3.org/2000/svg">
<g opacity="0.8">
<path fill-rule="evenodd" clip-rule="evenodd" d="M232.231 773.663C77.0421 894.446 -160.66 954.833 -412.078 809.025L-316.759 644.665C-142.414 745.775 11.7352 704.51 115.534 623.724C168.917 582.176 206.278 531.877 224.64 488.531C242.854 445.536 236.277 427.22 235.48 425C235.391 424.755 235.374 424.706 235.469 424.843L391.714 316.734C445.513 394.487 430.051 490.738 399.589 562.645C367.259 638.962 308.341 714.427 232.231 773.663Z" fill="url(#paint0_linear_8_2961)"/>
<path fill-rule="evenodd" clip-rule="evenodd" d="M658.301 747.491C569.457 808.451 468.655 856.255 367.878 868.103L345.694 679.402C404.777 672.456 476.233 641.991 550.804 590.824C624.361 540.353 694.966 473.811 751.86 403.323C809.386 332.053 848.845 261.787 865.675 205.078C883.283 145.752 870.642 124.872 864.995 118.956L1002.43 -12.2326C1077.64 66.5564 1073.27 173.38 1047.82 259.136C1021.6 347.51 966.663 439.706 899.708 522.658C832.122 606.393 748.157 685.836 658.301 747.491Z" fill="url(#paint1_linear_8_2961)"/>
<path fill-rule="evenodd" clip-rule="evenodd" d="M295.346 241.631C337.248 254.843 368.854 283.697 391.714 316.734L251.502 427.094C260.502 419.392 256.701 423.339 258.064 422.697C257.879 422.798 252.794 425.581 244.767 435.291C236.928 444.773 228.511 458.216 221.077 475.057C205.886 509.471 198.433 549.656 201.977 584.385C205.384 617.77 217.927 640.85 238.119 655.778C268.155 677.984 307.596 686.642 360.872 677.15L394.198 864.205C303.532 880.358 207.394 869.351 125.165 808.557C52.4725 754.813 20.4716 677.291 12.959 603.674C5.58364 531.402 20.8361 458.186 47.2581 398.329C72.319 341.556 115.102 280.01 177.114 250.804C210.838 234.92 252.307 228.061 295.346 241.631ZM230.944 419.274C230.945 419.272 230.991 419.309 231.08 419.392C230.989 419.318 230.944 419.277 230.944 419.274Z" fill="url(#paint2_linear_8_2961)"/>
<path fill-rule="evenodd" clip-rule="evenodd" d="M828.904 -76.0143C892.866 -83.8539 954.447 -62.5072 1002.43 -12.2329L1002.5 -11.9065L866.002 120.093C859.136 112.9 855.616 112.097 852.603 112.499C852.411 112.524 852.217 112.55 852.019 112.574C843.319 113.641 824.737 120.221 798.078 142.399C745.103 186.471 689.053 268.323 654.674 359.034C619.143 452.784 616.102 530.481 635.135 573.696C643.116 591.815 655.33 605.295 676.255 614.689C699.252 625.012 738.557 632.779 802.538 625.48C928.571 611.1 1046.48 532.506 1153.06 418.732C1300.8 261.023 1407.88 56.1336 1466.58 -60.9164L1636.42 24.2637C1577.46 141.826 1460.03 368.964 1291.73 548.627C1171.03 677.475 1014.32 792.549 824.077 814.255C738.235 824.049 662.025 816.567 598.442 788.024C532.787 758.55 487.355 709.543 461.254 650.281C412.123 538.731 435.17 402.084 477.006 291.698C519.994 178.273 592.59 66.196 676.565 -3.66408C718.38 -38.4511 770.349 -68.8373 828.904 -76.0143Z" fill="url(#paint3_linear_8_2961)"/>
</g>
<defs>
<linearGradient id="paint0_linear_8_2961" x1="-243.497" y1="863.094" x2="263.503" y2="391.594" gradientUnits="userSpaceOnUse">
<stop stop-color="#AC9DF7"/>
<stop offset="0.520833" stop-color="#5959DB"/>
<stop offset="0.749933" stop-color="#3692F5"/>
<stop offset="0.972762" stop-color="#73ADFC"/>
</linearGradient>
<linearGradient id="paint1_linear_8_2961" x1="370.844" y1="744.168" x2="914.629" y2="196.33" gradientUnits="userSpaceOnUse">
<stop stop-color="#6764F8"/>
<stop offset="0.255208" stop-color="#7C46F8"/>
<stop offset="0.557292" stop-color="#1683EF"/>
<stop offset="0.743537" stop-color="#338EE8"/>
<stop offset="0.994792" stop-color="#54A2EF"/>
</linearGradient>
<linearGradient id="paint2_linear_8_2961" x1="6.00238" y1="339.093" x2="288.502" y2="738.593" gradientUnits="userSpaceOnUse">
<stop stop-color="#93C9FF"/>
<stop offset="0.363277" stop-color="#72B4FA"/>
<stop offset="0.646622" stop-color="#729AFF"/>
<stop offset="1" stop-color="#6764F8"/>
</linearGradient>
<linearGradient id="paint3_linear_8_2961" x1="494.502" y1="330.094" x2="1194.45" y2="548.397" gradientUnits="userSpaceOnUse">
<stop stop-color="#6FB3F7"/>
<stop offset="0.539175" stop-color="#4F9EED"/>
<stop offset="1" stop-color="#9580EB"/>
</linearGradient>
</defs>
</svg>
